<?xml version="1.0" encoding="UTF-8"?>
<!DOCTYPE svg PUBLIC "-//W3C//DTD SVG 1.1//EN" "http://www.w3.org/Graphics/SVG/1.1/DTD/svg11.dtd">
<!-- Creator: CorelDRAW 2020 (64-Bit) -->
<svg xmlns="http://www.w3.org/2000/svg" xml:space="preserve" width="178.72mm" height="256.791mm" version="1.1" style="shape-rendering:geometricPrecision; text-rendering:geometricPrecision; image-rendering:optimizeQuality; fill-rule:evenodd; clip-rule:evenodd"
viewBox="0 0 1905.14 2737.37"
 xmlns:xlink="http://www.w3.org/1999/xlink"
 xmlns:xodm="http://www.corel.com/coreldraw/odm/2003">
 <defs>
  <style type="text/css">
   <![CDATA[
    .fil3 {fill:#33A852}
    .fil0 {fill:#4285F4}
    .fil1 {fill:#EA4234}
    .fil2 {fill:#FCBC05}
   ]]>
  </style>
 </defs>
 <g id="Capa_x0020_1">
  <metadata id="CorelCorpID_0Corel-Layer"/>
  <g id="_2602887005264">
   <path class="fil0" d="M551.33 1441.96c2.98,13.01 8.05,25.54 7.15,38.71 7.56,7.23 14.08,31.01 17.88,41.43 4.96,13.59 13.24,27.18 17.63,40.79 7.6,4.77 11.16,17.58 16,25.16 26.15,40.99 65.8,78.62 104.7,107.7l49.41 32.06c12.03,4.63 30.87,10.13 39.21,19.18 13.81,-0.51 26.45,6.25 40.24,10.8 13.6,4.49 28.5,6.43 44.16,9.59 7.57,1.14 11.38,1.69 18.93,2.35 3.38,0.3 7.43,0.45 10.65,0.98 10.03,1.67 4.89,-0.44 9.65,3.15 45.3,-7.56 59.95,8.07 163.36,-24.38 59.78,-18.76 85.27,-47.05 117.46,-65.26 6.22,-11.68 15.55,-13.36 23.77,-22.16 3.97,-4.26 5.59,-7.63 9.97,-11.44 5.39,-4.69 8.57,-5.92 12.13,-9.33 12.95,-18.42 27.7,-34.03 41.39,-55.64 15.38,-24.26 21.56,-35.4 33.68,-63.07 28.35,-54.87 32.03,-136.53 32.03,-206.94l0.45 -717.58c-0,-38.2 -1.54,-83.72 0.38,-120.94 7.3,-142.08 -22.84,-262.86 -120.82,-358.37 -16.87,-16.45 -44.98,-40.94 -65.19,-53.09 -117.48,-70.61 -245.65,-87.77 -378.79,-34.34 -56.02,22.48 -72.1,41.43 -111.4,68.82 -9.96,6.94 -7.61,3.99 -15.45,13.87 -21.03,26.5 -19.5,18.37 -42.62,49.06 -27.89,37.02 -45.81,68.86 -61.77,115.49 -24.89,72.75 -21.31,133.68 -21.34,217.36 -0.07,159.46 -0.22,318.94 -0,478.39 0.14,99.67 -5.64,389.09 7.18,467.64z"/>
   <path class="fil1" d="M1601.94 1560.23c-5.67,21.01 -23.34,75.13 -35.63,84.69 -0.34,13.5 -10.74,29.06 -19.27,42.48 -8.78,13.82 -13.52,24.63 -21.79,36.76 -7.71,10.36 -13.43,19.94 -21.09,30.4 -16.69,22.79 -75.43,94.51 -92.1,106.89 -19.9,14.77 -56.4,53.05 -80.92,64.47 -22.41,18.86 -76.38,50.62 -109.45,64.82 -21.47,9.22 -106.07,44.33 -131.04,41.16 -6.12,7.06 -23.18,7.5 -33.64,9.4 -17.48,2.27 -34.15,7 -52.36,4.04 -3.1,2.72 -0.88,1.46 -7,3.05 -2.48,0.64 -5.5,0.68 -7.82,0.97l-72.56 0 -32.25 -2.69 -40.31 -5.38c-10.37,-2.47 -27.51,-2.33 -33.64,-9.4 -19.97,2.54 -68.15,-16.63 -87.32,-23.5 -9.56,-2.56 -13.75,-4.54 -23.06,-8.27 -9.85,-3.94 -13.81,-4.27 -19.92,-9.9 -21.61,-2.94 -112.7,-58.29 -120.94,-69.68 -11.41,-5.31 -40.55,-28.05 -48.08,-35.43 -8.67,-8.5 -13.14,-11.93 -21.12,-19.15 -6.76,-6.12 -12.54,-15.15 -20.9,-17.14 -6.61,10.46 -57.44,59.4 -72.18,73.13l-39.06 38.87c-0.41,0.37 -1.01,0.89 -1.42,1.26l-6.93 6.58c-12.16,12.07 -66.6,60.79 -69.83,72.43 4.9,2.89 57.5,53.7 77.16,68.03 9.78,7.13 14.4,8.99 21.87,15.8 23.43,21.34 42.38,26.47 62.23,45.37 8.48,2.74 13.32,6.77 20.82,11.45 7,4.37 12.38,6.6 20.46,11.78 13.57,8.69 29.75,16.67 42.04,22.46l73.57 33.8c0.26,-0.51 1.14,0.73 1.68,1.14 8.82,1.21 33.06,10.14 40.33,14.09 25.81,6.96 56.93,19.29 83.3,23.52 26.18,8.9 64.33,14.25 92.94,19.21 43.43,3.62 83.58,10.44 132.81,10.38 24.11,-0.03 48.59,0.42 72.64,-0.21 22.87,-0.6 46.5,-5.17 67.85,-5.17 9.3,-3.39 67.09,-13.32 75.81,-12.1 6.89,-7.94 25.4,-8.23 36.33,-12.09 26.45,-4.5 69.03,-25.2 87.3,-25.54 6.63,-7.68 28.45,-13.99 39,-16.81 6.16,-4.63 31.62,-14.87 40.4,-19.33 6.66,-3.38 12.44,-6.44 19.39,-10.2 6.65,-3.61 12.89,-7.4 19.96,-9.94 13.53,-11.64 43.94,-24.69 62.18,-37.2 20.14,-13.81 38.18,-26.64 56.95,-40.14 27.53,-18.41 65.62,-53.01 89.36,-76.67 15.61,-15.55 26.58,-25.69 40.99,-42.52l38.97 -43.97c5.29,-9.5 15.37,-19.84 22.18,-28.97 7.47,-10 13.77,-20.14 21.02,-29.98 14.74,-20 24.15,-44.43 40.11,-62.16 3.91,-12.11 14.8,-29.67 21.11,-40.74 7.57,-13.3 13.7,-27.93 19.2,-39.88 5.85,-13.56 11.86,-25.25 16.8,-39.23 4.02,-11.36 8,-27.73 15.45,-38.05l12.84 -43.65c20.87,-72.99 33.86,-144.63 38.21,-225.76l1.56 -42.26 -4.23 -2.22 -268.76 0c0,50.68 -11.6,149.69 -30.21,186.93z"/>
   <path class="fil2" d="M-0 1385.51l0 8.09 2.69 59.1c2.81,24.91 4.88,50.5 8.61,75.32 3.07,20.47 13.22,53.94 13.69,72.51l4.13 12.17c1.16,4.29 1.89,7.21 2.76,10.4 2.23,8.16 3.79,15.45 5.91,23.11 4.6,13.01 8.06,25.74 13.04,38.57 5.58,14.37 10.2,25.55 14.48,39.39 6.05,12.45 11.28,26.84 18.07,41.13 6.64,13.98 12.72,26.58 19.56,39.5 6.94,13.12 14.24,26.57 22.91,41.36 5.75,9.81 19.9,29.8 22.77,39.27 11,11.52 21.03,27.46 29.77,40.23l65.05 79.96c6.53,6.65 11.11,10.51 17.04,18.09 6.49,8.29 9.65,14.56 19.83,17.41 3.22,-11.64 57.66,-60.36 69.83,-72.43l6.93 -6.58c0.41,-0.37 1.01,-0.89 1.42,-1.26l39.06 -38.87c14.74,-13.73 65.57,-62.67 72.18,-73.13 -13.72,-9.23 -17.55,-17.8 -29.06,-29.65 -9.02,-9.29 -17.92,-20 -26.11,-30.49 -18.03,-23.09 -30.83,-41.33 -46.15,-64.53 -7.96,-12.58 -40.39,-68.54 -42.4,-83.31l-9.24 -17.83c-9.87,-22.45 -11.31,-37.29 -20.32,-60.11 -2.55,-13.82 -8.48,-24.66 -6.73,-38.9 -7.6,-6.69 -9.11,-29.56 -9.4,-41.72l-2.69 -24.83c-8.48,-17.49 -2.14,-66.48 -6.79,-84.23l-270.5 -1.17 -0.34 13.45z"/>
   <path class="fil3" d="M1090 2312.74c-21.35,0 -44.98,4.58 -67.85,5.17 -24.06,0.63 -48.53,0.18 -72.64,0.21 -49.23,0.06 -89.38,-6.76 -132.81,-10.38l0 429.63 272.57 -0.77 0.74 -423.87z"/>
  </g>
 </g>
</svg>
